<svg width="73" height="73" viewBox="0 0 73 73" fill="none" xmlns="http://www.w3.org/2000/svg">
<circle opacity="0.32" cx="36" cy="37" r="36" fill="#C4C4C4"/>
<path d="M54.8219 31.4711L52.9313 23.7022C52.5351 22.1022 51.1307 21 49.4922 21H24.4821C22.8616 21 21.4391 22.12 21.061 23.7022L19.1704 31.4711C18.7383 33.2844 19.1344 35.1333 20.2868 36.5911C20.4308 36.7867 20.6289 36.9289 20.7909 37.1067V49.4444C20.7909 51.4 22.4114 53 24.3921 53H49.6002C51.5808 53 53.2014 51.4 53.2014 49.4444V37.1067C53.3634 36.9467 53.5615 36.7867 53.7055 36.6089C54.8579 35.1511 55.272 33.2844 54.8219 31.4711ZM49.4381 24.5378L51.3287 32.3067C51.5088 33.0533 51.3468 33.8 50.8786 34.3867C50.6265 34.7067 50.0863 35.2222 49.1861 35.2222C48.0877 35.2222 47.1334 34.3511 47.0074 33.1956L45.963 24.5556L49.4381 24.5378ZM38.7967 24.5556H42.3258L43.2982 32.5911C43.3882 33.2844 43.1721 33.9778 42.704 34.4933C42.3078 34.9556 41.7317 35.2222 40.9934 35.2222C39.787 35.2222 38.7967 34.1733 38.7967 32.8933V24.5556ZM30.6761 32.5911L31.6664 24.5556H35.1956V32.8933C35.1956 34.1733 34.2052 35.2222 32.8728 35.2222C32.2606 35.2222 31.7024 34.9556 31.2703 34.4933C30.8201 33.9778 30.6041 33.2844 30.6761 32.5911ZM22.6635 32.3067L24.4821 24.5556H28.0292L26.9849 33.1956C26.8409 34.3511 25.9046 35.2222 24.8062 35.2222C23.9239 35.2222 23.3657 34.7067 23.1317 34.3867C22.6455 33.8178 22.4835 33.0533 22.6635 32.3067ZM24.3921 49.4444V38.7244C24.5361 38.7422 24.6622 38.7778 24.8062 38.7778C26.3727 38.7778 27.7952 38.1378 28.8395 37.0889C29.9199 38.1556 31.3603 38.7778 32.9988 38.7778C34.5654 38.7778 35.9698 38.1378 37.0141 37.1244C38.0765 38.1378 39.5169 38.7778 41.1375 38.7778C42.65 38.7778 44.0904 38.1556 45.1708 37.0889C46.2151 38.1378 47.6376 38.7778 49.2041 38.7778C49.3481 38.7778 49.4742 38.7422 49.6182 38.7244V49.4444H24.3921Z" fill="black" fill-opacity="0.54"/>
</svg>
